<mxfile host="app.diagrams.net" agent="Mozilla/5.0 (Windows NT 10.0; Win64; x64) AppleWebKit/537.36 (KHTML, like Gecko) Chrome/131.0.0.0 Safari/537.36" version="25.0.3">
  <diagram name="หน้า-1" id="QMQTlNpx-98_zCxahopf">
    <mxGraphModel dx="6824" dy="2230" grid="1" gridSize="10" guides="1" tooltips="1" connect="1" arrows="1" fold="1" page="1" pageScale="1" pageWidth="827" pageHeight="1169" math="0" shadow="0">
      <root>
        <mxCell id="0" />
        <mxCell id="1" parent="0" />
        <mxCell id="mOFQqMSQU7gzzSFIz9HI-3" value="" style="edgeStyle=orthogonalEdgeStyle;rounded=0;orthogonalLoop=1;jettySize=auto;html=1;" edge="1" parent="1" source="mOFQqMSQU7gzzSFIz9HI-1" target="mOFQqMSQU7gzzSFIz9HI-2">
          <mxGeometry relative="1" as="geometry" />
        </mxCell>
        <mxCell id="mOFQqMSQU7gzzSFIz9HI-1" value="start" style="ellipse;whiteSpace=wrap;html=1;" vertex="1" parent="1">
          <mxGeometry x="350" y="90" width="120" height="80" as="geometry" />
        </mxCell>
        <mxCell id="mOFQqMSQU7gzzSFIz9HI-5" value="" style="edgeStyle=orthogonalEdgeStyle;rounded=0;orthogonalLoop=1;jettySize=auto;html=1;" edge="1" parent="1" source="mOFQqMSQU7gzzSFIz9HI-2" target="mOFQqMSQU7gzzSFIz9HI-4">
          <mxGeometry relative="1" as="geometry" />
        </mxCell>
        <mxCell id="mOFQqMSQU7gzzSFIz9HI-2" value="int oldArray[] = { 9, 2, 6, 1, 7 }" style="whiteSpace=wrap;html=1;" vertex="1" parent="1">
          <mxGeometry x="295" y="250" width="230" height="60" as="geometry" />
        </mxCell>
        <mxCell id="mOFQqMSQU7gzzSFIz9HI-7" value="" style="edgeStyle=orthogonalEdgeStyle;rounded=0;orthogonalLoop=1;jettySize=auto;html=1;" edge="1" parent="1" source="mOFQqMSQU7gzzSFIz9HI-4" target="mOFQqMSQU7gzzSFIz9HI-6">
          <mxGeometry relative="1" as="geometry" />
        </mxCell>
        <mxCell id="mOFQqMSQU7gzzSFIz9HI-4" value="int oldSize = 5 ;" style="whiteSpace=wrap;html=1;" vertex="1" parent="1">
          <mxGeometry x="350" y="390" width="120" height="60" as="geometry" />
        </mxCell>
        <mxCell id="mOFQqMSQU7gzzSFIz9HI-9" value="" style="edgeStyle=orthogonalEdgeStyle;rounded=0;orthogonalLoop=1;jettySize=auto;html=1;" edge="1" parent="1" source="mOFQqMSQU7gzzSFIz9HI-6" target="mOFQqMSQU7gzzSFIz9HI-8">
          <mxGeometry relative="1" as="geometry" />
        </mxCell>
        <mxCell id="mOFQqMSQU7gzzSFIz9HI-6" value="แสดงข้อความ oldArray" style="shape=parallelogram;perimeter=parallelogramPerimeter;whiteSpace=wrap;html=1;fixedSize=1;" vertex="1" parent="1">
          <mxGeometry x="310" y="540" width="200" height="60" as="geometry" />
        </mxCell>
        <mxCell id="mOFQqMSQU7gzzSFIz9HI-11" value="" style="edgeStyle=orthogonalEdgeStyle;rounded=0;orthogonalLoop=1;jettySize=auto;html=1;" edge="1" parent="1" source="mOFQqMSQU7gzzSFIz9HI-8" target="mOFQqMSQU7gzzSFIz9HI-10">
          <mxGeometry relative="1" as="geometry" />
        </mxCell>
        <mxCell id="mOFQqMSQU7gzzSFIz9HI-8" value="int i = 0" style="whiteSpace=wrap;html=1;" vertex="1" parent="1">
          <mxGeometry x="350" y="680" width="120" height="60" as="geometry" />
        </mxCell>
        <mxCell id="mOFQqMSQU7gzzSFIz9HI-13" value="" style="edgeStyle=orthogonalEdgeStyle;rounded=0;orthogonalLoop=1;jettySize=auto;html=1;" edge="1" parent="1" source="mOFQqMSQU7gzzSFIz9HI-10" target="mOFQqMSQU7gzzSFIz9HI-12">
          <mxGeometry relative="1" as="geometry" />
        </mxCell>
        <mxCell id="mOFQqMSQU7gzzSFIz9HI-20" value="" style="edgeStyle=orthogonalEdgeStyle;rounded=0;orthogonalLoop=1;jettySize=auto;html=1;" edge="1" parent="1" source="mOFQqMSQU7gzzSFIz9HI-10" target="mOFQqMSQU7gzzSFIz9HI-19">
          <mxGeometry relative="1" as="geometry" />
        </mxCell>
        <mxCell id="mOFQqMSQU7gzzSFIz9HI-10" value="i &amp;lt; oldSize ?" style="rhombus;whiteSpace=wrap;html=1;" vertex="1" parent="1">
          <mxGeometry x="370" y="810" width="80" height="80" as="geometry" />
        </mxCell>
        <mxCell id="mOFQqMSQU7gzzSFIz9HI-16" value="" style="edgeStyle=orthogonalEdgeStyle;rounded=0;orthogonalLoop=1;jettySize=auto;html=1;" edge="1" parent="1" source="mOFQqMSQU7gzzSFIz9HI-12" target="mOFQqMSQU7gzzSFIz9HI-15">
          <mxGeometry relative="1" as="geometry" />
        </mxCell>
        <mxCell id="mOFQqMSQU7gzzSFIz9HI-12" value="แสดง oldArray" style="shape=parallelogram;perimeter=parallelogramPerimeter;whiteSpace=wrap;html=1;fixedSize=1;" vertex="1" parent="1">
          <mxGeometry x="350" y="980" width="120" height="60" as="geometry" />
        </mxCell>
        <mxCell id="mOFQqMSQU7gzzSFIz9HI-14" value="T" style="text;html=1;align=center;verticalAlign=middle;resizable=0;points=[];autosize=1;strokeColor=none;fillColor=none;" vertex="1" parent="1">
          <mxGeometry x="415" y="888" width="30" height="30" as="geometry" />
        </mxCell>
        <mxCell id="mOFQqMSQU7gzzSFIz9HI-15" value="i++" style="whiteSpace=wrap;html=1;" vertex="1" parent="1">
          <mxGeometry x="350" y="1120" width="120" height="60" as="geometry" />
        </mxCell>
        <mxCell id="mOFQqMSQU7gzzSFIz9HI-17" value="" style="shape=waypoint;sketch=0;fillStyle=solid;size=6;pointerEvents=1;points=[];fillColor=none;resizable=0;rotatable=0;perimeter=centerPerimeter;snapToPoint=1;" vertex="1" parent="1">
          <mxGeometry x="400" y="760" width="20" height="20" as="geometry" />
        </mxCell>
        <mxCell id="mOFQqMSQU7gzzSFIz9HI-18" style="edgeStyle=orthogonalEdgeStyle;rounded=0;orthogonalLoop=1;jettySize=auto;html=1;exitX=0.5;exitY=1;exitDx=0;exitDy=0;entryX=0.95;entryY=0.15;entryDx=0;entryDy=0;entryPerimeter=0;" edge="1" parent="1" source="mOFQqMSQU7gzzSFIz9HI-15" target="mOFQqMSQU7gzzSFIz9HI-17">
          <mxGeometry relative="1" as="geometry">
            <Array as="points">
              <mxPoint x="410" y="1230" />
              <mxPoint x="330" y="1230" />
              <mxPoint x="330" y="770" />
            </Array>
          </mxGeometry>
        </mxCell>
        <mxCell id="mOFQqMSQU7gzzSFIz9HI-22" value="" style="edgeStyle=orthogonalEdgeStyle;rounded=0;orthogonalLoop=1;jettySize=auto;html=1;" edge="1" parent="1" source="mOFQqMSQU7gzzSFIz9HI-19" target="mOFQqMSQU7gzzSFIz9HI-21">
          <mxGeometry relative="1" as="geometry" />
        </mxCell>
        <mxCell id="mOFQqMSQU7gzzSFIz9HI-19" value="int n" style="whiteSpace=wrap;html=1;" vertex="1" parent="1">
          <mxGeometry x="510" y="820" width="120" height="60" as="geometry" />
        </mxCell>
        <mxCell id="mOFQqMSQU7gzzSFIz9HI-24" value="" style="edgeStyle=orthogonalEdgeStyle;rounded=0;orthogonalLoop=1;jettySize=auto;html=1;" edge="1" parent="1" source="mOFQqMSQU7gzzSFIz9HI-21" target="mOFQqMSQU7gzzSFIz9HI-23">
          <mxGeometry relative="1" as="geometry" />
        </mxCell>
        <mxCell id="mOFQqMSQU7gzzSFIz9HI-21" value="แสดงข้อความ Enter new element of Array" style="shape=parallelogram;perimeter=parallelogramPerimeter;whiteSpace=wrap;html=1;fixedSize=1;" vertex="1" parent="1">
          <mxGeometry x="710" y="820" width="260" height="60" as="geometry" />
        </mxCell>
        <mxCell id="mOFQqMSQU7gzzSFIz9HI-26" value="" style="edgeStyle=orthogonalEdgeStyle;rounded=0;orthogonalLoop=1;jettySize=auto;html=1;" edge="1" parent="1" source="mOFQqMSQU7gzzSFIz9HI-23" target="mOFQqMSQU7gzzSFIz9HI-25">
          <mxGeometry relative="1" as="geometry" />
        </mxCell>
        <mxCell id="mOFQqMSQU7gzzSFIz9HI-23" value="รับค่าจากผู้ใช้" style="shape=parallelogram;perimeter=parallelogramPerimeter;whiteSpace=wrap;html=1;fixedSize=1;" vertex="1" parent="1">
          <mxGeometry x="780" y="960" width="120" height="60" as="geometry" />
        </mxCell>
        <mxCell id="mOFQqMSQU7gzzSFIz9HI-28" value="" style="edgeStyle=orthogonalEdgeStyle;rounded=0;orthogonalLoop=1;jettySize=auto;html=1;" edge="1" parent="1" source="mOFQqMSQU7gzzSFIz9HI-25" target="mOFQqMSQU7gzzSFIz9HI-27">
          <mxGeometry relative="1" as="geometry" />
        </mxCell>
        <mxCell id="mOFQqMSQU7gzzSFIz9HI-25" value="int newArray" style="whiteSpace=wrap;html=1;" vertex="1" parent="1">
          <mxGeometry x="780" y="1100" width="120" height="60" as="geometry" />
        </mxCell>
        <mxCell id="mOFQqMSQU7gzzSFIz9HI-30" value="" style="edgeStyle=orthogonalEdgeStyle;rounded=0;orthogonalLoop=1;jettySize=auto;html=1;" edge="1" parent="1" source="mOFQqMSQU7gzzSFIz9HI-27" target="mOFQqMSQU7gzzSFIz9HI-29">
          <mxGeometry relative="1" as="geometry" />
        </mxCell>
        <mxCell id="mOFQqMSQU7gzzSFIz9HI-38" value="" style="edgeStyle=orthogonalEdgeStyle;rounded=0;orthogonalLoop=1;jettySize=auto;html=1;" edge="1" parent="1" source="mOFQqMSQU7gzzSFIz9HI-27" target="mOFQqMSQU7gzzSFIz9HI-37">
          <mxGeometry relative="1" as="geometry" />
        </mxCell>
        <mxCell id="mOFQqMSQU7gzzSFIz9HI-27" value="i &amp;lt; n ?" style="rhombus;whiteSpace=wrap;html=1;" vertex="1" parent="1">
          <mxGeometry x="800" y="1230" width="80" height="80" as="geometry" />
        </mxCell>
        <mxCell id="mOFQqMSQU7gzzSFIz9HI-32" value="" style="edgeStyle=orthogonalEdgeStyle;rounded=0;orthogonalLoop=1;jettySize=auto;html=1;" edge="1" parent="1" source="mOFQqMSQU7gzzSFIz9HI-29" target="mOFQqMSQU7gzzSFIz9HI-31">
          <mxGeometry relative="1" as="geometry" />
        </mxCell>
        <mxCell id="mOFQqMSQU7gzzSFIz9HI-29" value="แสดงข้อความ Input" style="shape=parallelogram;perimeter=parallelogramPerimeter;whiteSpace=wrap;html=1;fixedSize=1;" vertex="1" parent="1">
          <mxGeometry x="760" y="1400" width="160" height="60" as="geometry" />
        </mxCell>
        <mxCell id="mOFQqMSQU7gzzSFIz9HI-34" value="" style="edgeStyle=orthogonalEdgeStyle;rounded=0;orthogonalLoop=1;jettySize=auto;html=1;" edge="1" parent="1" source="mOFQqMSQU7gzzSFIz9HI-31" target="mOFQqMSQU7gzzSFIz9HI-33">
          <mxGeometry relative="1" as="geometry" />
        </mxCell>
        <mxCell id="mOFQqMSQU7gzzSFIz9HI-31" value="รับค่าจากผู้ใช้" style="shape=parallelogram;perimeter=parallelogramPerimeter;whiteSpace=wrap;html=1;fixedSize=1;" vertex="1" parent="1">
          <mxGeometry x="780" y="1540" width="120" height="60" as="geometry" />
        </mxCell>
        <mxCell id="mOFQqMSQU7gzzSFIz9HI-36" style="edgeStyle=orthogonalEdgeStyle;rounded=0;orthogonalLoop=1;jettySize=auto;html=1;exitX=0.5;exitY=1;exitDx=0;exitDy=0;" edge="1" parent="1" source="mOFQqMSQU7gzzSFIz9HI-33" target="mOFQqMSQU7gzzSFIz9HI-35">
          <mxGeometry relative="1" as="geometry">
            <Array as="points">
              <mxPoint x="840" y="1790" />
              <mxPoint x="970" y="1790" />
              <mxPoint x="970" y="1190" />
            </Array>
          </mxGeometry>
        </mxCell>
        <mxCell id="mOFQqMSQU7gzzSFIz9HI-33" value="i++" style="whiteSpace=wrap;html=1;" vertex="1" parent="1">
          <mxGeometry x="780" y="1680" width="120" height="60" as="geometry" />
        </mxCell>
        <mxCell id="mOFQqMSQU7gzzSFIz9HI-35" value="" style="shape=waypoint;sketch=0;fillStyle=solid;size=6;pointerEvents=1;points=[];fillColor=none;resizable=0;rotatable=0;perimeter=centerPerimeter;snapToPoint=1;" vertex="1" parent="1">
          <mxGeometry x="830" y="1180" width="20" height="20" as="geometry" />
        </mxCell>
        <mxCell id="mOFQqMSQU7gzzSFIz9HI-40" value="" style="edgeStyle=orthogonalEdgeStyle;rounded=0;orthogonalLoop=1;jettySize=auto;html=1;" edge="1" parent="1" source="mOFQqMSQU7gzzSFIz9HI-37" target="mOFQqMSQU7gzzSFIz9HI-39">
          <mxGeometry relative="1" as="geometry" />
        </mxCell>
        <mxCell id="mOFQqMSQU7gzzSFIz9HI-37" value="int totalSize = oldSize + n" style="whiteSpace=wrap;html=1;" vertex="1" parent="1">
          <mxGeometry x="480" y="1240" width="180" height="60" as="geometry" />
        </mxCell>
        <mxCell id="mOFQqMSQU7gzzSFIz9HI-42" value="" style="edgeStyle=orthogonalEdgeStyle;rounded=0;orthogonalLoop=1;jettySize=auto;html=1;" edge="1" parent="1" source="mOFQqMSQU7gzzSFIz9HI-39" target="mOFQqMSQU7gzzSFIz9HI-41">
          <mxGeometry relative="1" as="geometry" />
        </mxCell>
        <mxCell id="mOFQqMSQU7gzzSFIz9HI-39" value="int combinedArray[ totalSize[ i ]" style="whiteSpace=wrap;html=1;" vertex="1" parent="1">
          <mxGeometry x="475" y="1420" width="190" height="60" as="geometry" />
        </mxCell>
        <mxCell id="mOFQqMSQU7gzzSFIz9HI-44" value="" style="edgeStyle=orthogonalEdgeStyle;rounded=0;orthogonalLoop=1;jettySize=auto;html=1;" edge="1" parent="1" source="mOFQqMSQU7gzzSFIz9HI-41" target="mOFQqMSQU7gzzSFIz9HI-43">
          <mxGeometry relative="1" as="geometry" />
        </mxCell>
        <mxCell id="mOFQqMSQU7gzzSFIz9HI-41" value="int i = 0" style="whiteSpace=wrap;html=1;" vertex="1" parent="1">
          <mxGeometry x="510" y="1560" width="120" height="60" as="geometry" />
        </mxCell>
        <mxCell id="mOFQqMSQU7gzzSFIz9HI-46" value="" style="edgeStyle=orthogonalEdgeStyle;rounded=0;orthogonalLoop=1;jettySize=auto;html=1;" edge="1" parent="1" source="mOFQqMSQU7gzzSFIz9HI-43" target="mOFQqMSQU7gzzSFIz9HI-45">
          <mxGeometry relative="1" as="geometry" />
        </mxCell>
        <mxCell id="mOFQqMSQU7gzzSFIz9HI-53" value="" style="edgeStyle=orthogonalEdgeStyle;rounded=0;orthogonalLoop=1;jettySize=auto;html=1;" edge="1" parent="1" source="mOFQqMSQU7gzzSFIz9HI-43" target="mOFQqMSQU7gzzSFIz9HI-52">
          <mxGeometry relative="1" as="geometry" />
        </mxCell>
        <mxCell id="mOFQqMSQU7gzzSFIz9HI-43" value="i &amp;lt; oldSize ?" style="rhombus;whiteSpace=wrap;html=1;" vertex="1" parent="1">
          <mxGeometry x="515" y="1730" width="110" height="100" as="geometry" />
        </mxCell>
        <mxCell id="mOFQqMSQU7gzzSFIz9HI-48" value="" style="edgeStyle=orthogonalEdgeStyle;rounded=0;orthogonalLoop=1;jettySize=auto;html=1;" edge="1" parent="1" source="mOFQqMSQU7gzzSFIz9HI-45" target="mOFQqMSQU7gzzSFIz9HI-47">
          <mxGeometry relative="1" as="geometry" />
        </mxCell>
        <mxCell id="mOFQqMSQU7gzzSFIz9HI-45" value="combinedArray[ i ] = oldArray" style="whiteSpace=wrap;html=1;" vertex="1" parent="1">
          <mxGeometry x="480" y="1930" width="180" height="60" as="geometry" />
        </mxCell>
        <mxCell id="mOFQqMSQU7gzzSFIz9HI-47" value="i++" style="whiteSpace=wrap;html=1;" vertex="1" parent="1">
          <mxGeometry x="510" y="2070" width="120" height="60" as="geometry" />
        </mxCell>
        <mxCell id="mOFQqMSQU7gzzSFIz9HI-49" value="" style="shape=waypoint;sketch=0;fillStyle=solid;size=6;pointerEvents=1;points=[];fillColor=none;resizable=0;rotatable=0;perimeter=centerPerimeter;snapToPoint=1;" vertex="1" parent="1">
          <mxGeometry x="560" y="1660" width="20" height="20" as="geometry" />
        </mxCell>
        <mxCell id="mOFQqMSQU7gzzSFIz9HI-50" style="edgeStyle=orthogonalEdgeStyle;rounded=0;orthogonalLoop=1;jettySize=auto;html=1;exitX=0.5;exitY=1;exitDx=0;exitDy=0;entryX=-0.05;entryY=0.05;entryDx=0;entryDy=0;entryPerimeter=0;" edge="1" parent="1" source="mOFQqMSQU7gzzSFIz9HI-47" target="mOFQqMSQU7gzzSFIz9HI-49">
          <mxGeometry relative="1" as="geometry">
            <Array as="points">
              <mxPoint x="570" y="2160" />
              <mxPoint x="700" y="2160" />
              <mxPoint x="700" y="1670" />
            </Array>
          </mxGeometry>
        </mxCell>
        <mxCell id="mOFQqMSQU7gzzSFIz9HI-51" value="T" style="text;html=1;align=center;verticalAlign=middle;resizable=0;points=[];autosize=1;strokeColor=none;fillColor=none;" vertex="1" parent="1">
          <mxGeometry x="575" y="1838" width="30" height="30" as="geometry" />
        </mxCell>
        <mxCell id="mOFQqMSQU7gzzSFIz9HI-61" style="edgeStyle=orthogonalEdgeStyle;rounded=0;orthogonalLoop=1;jettySize=auto;html=1;exitX=0;exitY=0.5;exitDx=0;exitDy=0;entryX=0.5;entryY=0;entryDx=0;entryDy=0;" edge="1" parent="1" source="mOFQqMSQU7gzzSFIz9HI-52" target="mOFQqMSQU7gzzSFIz9HI-54">
          <mxGeometry relative="1" as="geometry" />
        </mxCell>
        <mxCell id="mOFQqMSQU7gzzSFIz9HI-52" value="int i = 0" style="whiteSpace=wrap;html=1;" vertex="1" parent="1">
          <mxGeometry x="280" y="1750" width="120" height="60" as="geometry" />
        </mxCell>
        <mxCell id="mOFQqMSQU7gzzSFIz9HI-57" value="" style="edgeStyle=orthogonalEdgeStyle;rounded=0;orthogonalLoop=1;jettySize=auto;html=1;" edge="1" parent="1" source="mOFQqMSQU7gzzSFIz9HI-54" target="mOFQqMSQU7gzzSFIz9HI-56">
          <mxGeometry relative="1" as="geometry" />
        </mxCell>
        <mxCell id="mOFQqMSQU7gzzSFIz9HI-65" value="" style="edgeStyle=orthogonalEdgeStyle;rounded=0;orthogonalLoop=1;jettySize=auto;html=1;" edge="1" parent="1" source="mOFQqMSQU7gzzSFIz9HI-54" target="mOFQqMSQU7gzzSFIz9HI-64">
          <mxGeometry relative="1" as="geometry" />
        </mxCell>
        <mxCell id="mOFQqMSQU7gzzSFIz9HI-54" value="i &amp;lt; n ?" style="rhombus;whiteSpace=wrap;html=1;" vertex="1" parent="1">
          <mxGeometry x="155" y="1900" width="80" height="80" as="geometry" />
        </mxCell>
        <mxCell id="mOFQqMSQU7gzzSFIz9HI-60" value="" style="edgeStyle=orthogonalEdgeStyle;rounded=0;orthogonalLoop=1;jettySize=auto;html=1;" edge="1" parent="1" source="mOFQqMSQU7gzzSFIz9HI-56" target="mOFQqMSQU7gzzSFIz9HI-59">
          <mxGeometry relative="1" as="geometry" />
        </mxCell>
        <mxCell id="mOFQqMSQU7gzzSFIz9HI-56" value="combinedArray[ i ] = oldSize[ i ]&amp;nbsp;" style="whiteSpace=wrap;html=1;" vertex="1" parent="1">
          <mxGeometry x="80" y="2070" width="230" height="60" as="geometry" />
        </mxCell>
        <mxCell id="mOFQqMSQU7gzzSFIz9HI-58" value="T" style="text;html=1;align=center;verticalAlign=middle;resizable=0;points=[];autosize=1;strokeColor=none;fillColor=none;" vertex="1" parent="1">
          <mxGeometry x="190" y="1978" width="30" height="30" as="geometry" />
        </mxCell>
        <mxCell id="mOFQqMSQU7gzzSFIz9HI-59" value="i++" style="whiteSpace=wrap;html=1;" vertex="1" parent="1">
          <mxGeometry x="135" y="2210" width="120" height="60" as="geometry" />
        </mxCell>
        <mxCell id="mOFQqMSQU7gzzSFIz9HI-62" value="" style="shape=waypoint;sketch=0;fillStyle=solid;size=6;pointerEvents=1;points=[];fillColor=none;resizable=0;rotatable=0;perimeter=centerPerimeter;snapToPoint=1;" vertex="1" parent="1">
          <mxGeometry x="185" y="1810" width="20" height="20" as="geometry" />
        </mxCell>
        <mxCell id="mOFQqMSQU7gzzSFIz9HI-63" style="edgeStyle=orthogonalEdgeStyle;rounded=0;orthogonalLoop=1;jettySize=auto;html=1;exitX=0.5;exitY=1;exitDx=0;exitDy=0;entryX=0.95;entryY=0.95;entryDx=0;entryDy=0;entryPerimeter=0;" edge="1" parent="1" source="mOFQqMSQU7gzzSFIz9HI-59" target="mOFQqMSQU7gzzSFIz9HI-62">
          <mxGeometry relative="1" as="geometry">
            <Array as="points">
              <mxPoint x="195" y="2340" />
              <mxPoint x="360" y="2340" />
              <mxPoint x="360" y="1820" />
            </Array>
          </mxGeometry>
        </mxCell>
        <mxCell id="mOFQqMSQU7gzzSFIz9HI-68" value="" style="edgeStyle=orthogonalEdgeStyle;rounded=0;orthogonalLoop=1;jettySize=auto;html=1;" edge="1" parent="1" source="mOFQqMSQU7gzzSFIz9HI-64" target="mOFQqMSQU7gzzSFIz9HI-67">
          <mxGeometry relative="1" as="geometry" />
        </mxCell>
        <mxCell id="mOFQqMSQU7gzzSFIz9HI-64" value="int i = 0" style="whiteSpace=wrap;html=1;" vertex="1" parent="1">
          <mxGeometry x="-300" y="2000" width="120" height="60" as="geometry" />
        </mxCell>
        <mxCell id="mOFQqMSQU7gzzSFIz9HI-66" value="F" style="text;html=1;align=center;verticalAlign=middle;resizable=0;points=[];autosize=1;strokeColor=none;fillColor=none;" vertex="1" parent="1">
          <mxGeometry x="125" y="1898" width="30" height="30" as="geometry" />
        </mxCell>
        <mxCell id="mOFQqMSQU7gzzSFIz9HI-70" value="" style="edgeStyle=orthogonalEdgeStyle;rounded=0;orthogonalLoop=1;jettySize=auto;html=1;" edge="1" parent="1" source="mOFQqMSQU7gzzSFIz9HI-67" target="mOFQqMSQU7gzzSFIz9HI-69">
          <mxGeometry relative="1" as="geometry" />
        </mxCell>
        <mxCell id="mOFQqMSQU7gzzSFIz9HI-98" value="" style="edgeStyle=orthogonalEdgeStyle;rounded=0;orthogonalLoop=1;jettySize=auto;html=1;" edge="1" parent="1" source="mOFQqMSQU7gzzSFIz9HI-67" target="mOFQqMSQU7gzzSFIz9HI-97">
          <mxGeometry relative="1" as="geometry" />
        </mxCell>
        <mxCell id="mOFQqMSQU7gzzSFIz9HI-67" value="i &amp;lt;totalSize -1 ?" style="rhombus;whiteSpace=wrap;html=1;" vertex="1" parent="1">
          <mxGeometry x="-310" y="2150" width="140" height="110" as="geometry" />
        </mxCell>
        <mxCell id="mOFQqMSQU7gzzSFIz9HI-73" value="" style="edgeStyle=orthogonalEdgeStyle;rounded=0;orthogonalLoop=1;jettySize=auto;html=1;" edge="1" parent="1" source="mOFQqMSQU7gzzSFIz9HI-69" target="mOFQqMSQU7gzzSFIz9HI-72">
          <mxGeometry relative="1" as="geometry" />
        </mxCell>
        <mxCell id="mOFQqMSQU7gzzSFIz9HI-69" value="int j = i + 1" style="whiteSpace=wrap;html=1;" vertex="1" parent="1">
          <mxGeometry x="-300" y="2365" width="120" height="60" as="geometry" />
        </mxCell>
        <mxCell id="mOFQqMSQU7gzzSFIz9HI-71" value="T" style="text;html=1;align=center;verticalAlign=middle;resizable=0;points=[];autosize=1;strokeColor=none;fillColor=none;" vertex="1" parent="1">
          <mxGeometry x="-225" y="2258" width="30" height="30" as="geometry" />
        </mxCell>
        <mxCell id="mOFQqMSQU7gzzSFIz9HI-75" value="" style="edgeStyle=orthogonalEdgeStyle;rounded=0;orthogonalLoop=1;jettySize=auto;html=1;" edge="1" parent="1" source="mOFQqMSQU7gzzSFIz9HI-72" target="mOFQqMSQU7gzzSFIz9HI-74">
          <mxGeometry relative="1" as="geometry" />
        </mxCell>
        <mxCell id="mOFQqMSQU7gzzSFIz9HI-80" value="" style="edgeStyle=orthogonalEdgeStyle;rounded=0;orthogonalLoop=1;jettySize=auto;html=1;" edge="1" parent="1" source="mOFQqMSQU7gzzSFIz9HI-72" target="mOFQqMSQU7gzzSFIz9HI-79">
          <mxGeometry relative="1" as="geometry" />
        </mxCell>
        <mxCell id="mOFQqMSQU7gzzSFIz9HI-72" value="j &amp;lt; totalSize ?" style="rhombus;whiteSpace=wrap;html=1;" vertex="1" parent="1">
          <mxGeometry x="-305" y="2510" width="130" height="105" as="geometry" />
        </mxCell>
        <mxCell id="mOFQqMSQU7gzzSFIz9HI-74" value="i++" style="whiteSpace=wrap;html=1;" vertex="1" parent="1">
          <mxGeometry x="-90" y="2532.5" width="120" height="60" as="geometry" />
        </mxCell>
        <mxCell id="mOFQqMSQU7gzzSFIz9HI-76" value="" style="shape=waypoint;sketch=0;fillStyle=solid;size=6;pointerEvents=1;points=[];fillColor=none;resizable=0;rotatable=0;perimeter=centerPerimeter;snapToPoint=1;" vertex="1" parent="1">
          <mxGeometry x="-250" y="2080" width="20" height="20" as="geometry" />
        </mxCell>
        <mxCell id="mOFQqMSQU7gzzSFIz9HI-77" style="edgeStyle=orthogonalEdgeStyle;rounded=0;orthogonalLoop=1;jettySize=auto;html=1;exitX=0.5;exitY=0;exitDx=0;exitDy=0;entryX=0.8;entryY=0.8;entryDx=0;entryDy=0;entryPerimeter=0;" edge="1" parent="1" source="mOFQqMSQU7gzzSFIz9HI-74" target="mOFQqMSQU7gzzSFIz9HI-76">
          <mxGeometry relative="1" as="geometry">
            <Array as="points">
              <mxPoint x="-30" y="2090" />
            </Array>
          </mxGeometry>
        </mxCell>
        <mxCell id="mOFQqMSQU7gzzSFIz9HI-78" value="F" style="text;html=1;align=center;verticalAlign=middle;resizable=0;points=[];autosize=1;strokeColor=none;fillColor=none;" vertex="1" parent="1">
          <mxGeometry x="-175" y="2508" width="30" height="30" as="geometry" />
        </mxCell>
        <mxCell id="mOFQqMSQU7gzzSFIz9HI-82" value="" style="edgeStyle=orthogonalEdgeStyle;rounded=0;orthogonalLoop=1;jettySize=auto;html=1;" edge="1" parent="1" source="mOFQqMSQU7gzzSFIz9HI-79" target="mOFQqMSQU7gzzSFIz9HI-81">
          <mxGeometry relative="1" as="geometry" />
        </mxCell>
        <mxCell id="mOFQqMSQU7gzzSFIz9HI-94" style="edgeStyle=orthogonalEdgeStyle;rounded=0;orthogonalLoop=1;jettySize=auto;html=1;exitX=0;exitY=0.5;exitDx=0;exitDy=0;entryX=0.1;entryY=0.5;entryDx=0;entryDy=0;entryPerimeter=0;" edge="1" parent="1" source="mOFQqMSQU7gzzSFIz9HI-79" target="mOFQqMSQU7gzzSFIz9HI-95">
          <mxGeometry relative="1" as="geometry">
            <mxPoint x="-420" y="3290" as="targetPoint" />
            <Array as="points">
              <mxPoint x="-470" y="2760" />
              <mxPoint x="-470" y="3280" />
            </Array>
          </mxGeometry>
        </mxCell>
        <mxCell id="mOFQqMSQU7gzzSFIz9HI-79" value="combinedArray[ i ] &amp;gt; combinedArray[ j ]&amp;nbsp;" style="rhombus;whiteSpace=wrap;html=1;" vertex="1" parent="1">
          <mxGeometry x="-400" y="2720" width="320" height="80" as="geometry" />
        </mxCell>
        <mxCell id="mOFQqMSQU7gzzSFIz9HI-84" value="" style="edgeStyle=orthogonalEdgeStyle;rounded=0;orthogonalLoop=1;jettySize=auto;html=1;" edge="1" parent="1" source="mOFQqMSQU7gzzSFIz9HI-81" target="mOFQqMSQU7gzzSFIz9HI-83">
          <mxGeometry relative="1" as="geometry" />
        </mxCell>
        <mxCell id="mOFQqMSQU7gzzSFIz9HI-81" value="int temp = combinedArray[ i ]" style="whiteSpace=wrap;html=1;" vertex="1" parent="1">
          <mxGeometry x="-335" y="2900" width="190" height="60" as="geometry" />
        </mxCell>
        <mxCell id="mOFQqMSQU7gzzSFIz9HI-86" value="" style="edgeStyle=orthogonalEdgeStyle;rounded=0;orthogonalLoop=1;jettySize=auto;html=1;" edge="1" parent="1" source="mOFQqMSQU7gzzSFIz9HI-83" target="mOFQqMSQU7gzzSFIz9HI-85">
          <mxGeometry relative="1" as="geometry" />
        </mxCell>
        <mxCell id="mOFQqMSQU7gzzSFIz9HI-83" value="combinedArray[ i ] = combinedArray[ j ]" style="whiteSpace=wrap;html=1;" vertex="1" parent="1">
          <mxGeometry x="-370" y="3040" width="260" height="60" as="geometry" />
        </mxCell>
        <mxCell id="mOFQqMSQU7gzzSFIz9HI-88" value="" style="edgeStyle=orthogonalEdgeStyle;rounded=0;orthogonalLoop=1;jettySize=auto;html=1;" edge="1" parent="1" source="mOFQqMSQU7gzzSFIz9HI-85" target="mOFQqMSQU7gzzSFIz9HI-87">
          <mxGeometry relative="1" as="geometry" />
        </mxCell>
        <mxCell id="mOFQqMSQU7gzzSFIz9HI-85" value="combinedArray[ j ] = temp" style="whiteSpace=wrap;html=1;" vertex="1" parent="1">
          <mxGeometry x="-355" y="3180" width="230" height="60" as="geometry" />
        </mxCell>
        <mxCell id="mOFQqMSQU7gzzSFIz9HI-92" style="edgeStyle=orthogonalEdgeStyle;rounded=0;orthogonalLoop=1;jettySize=auto;html=1;exitX=0.5;exitY=1;exitDx=0;exitDy=0;entryX=0.55;entryY=0.8;entryDx=0;entryDy=0;entryPerimeter=0;" edge="1" parent="1" source="mOFQqMSQU7gzzSFIz9HI-87" target="mOFQqMSQU7gzzSFIz9HI-93">
          <mxGeometry relative="1" as="geometry">
            <mxPoint x="-20" y="2820" as="targetPoint" />
            <Array as="points">
              <mxPoint x="-240" y="3400" />
              <mxPoint x="-40" y="3400" />
              <mxPoint x="-40" y="2850" />
            </Array>
          </mxGeometry>
        </mxCell>
        <mxCell id="mOFQqMSQU7gzzSFIz9HI-87" value="j++" style="whiteSpace=wrap;html=1;" vertex="1" parent="1">
          <mxGeometry x="-300" y="3320" width="120" height="60" as="geometry" />
        </mxCell>
        <mxCell id="mOFQqMSQU7gzzSFIz9HI-89" value="T" style="text;html=1;align=center;verticalAlign=middle;resizable=0;points=[];autosize=1;strokeColor=none;fillColor=none;" vertex="1" parent="1">
          <mxGeometry x="-235" y="2808" width="30" height="30" as="geometry" />
        </mxCell>
        <mxCell id="mOFQqMSQU7gzzSFIz9HI-90" value="T" style="text;html=1;align=center;verticalAlign=middle;resizable=0;points=[];autosize=1;strokeColor=none;fillColor=none;" vertex="1" parent="1">
          <mxGeometry x="-235" y="2598" width="30" height="30" as="geometry" />
        </mxCell>
        <mxCell id="mOFQqMSQU7gzzSFIz9HI-93" value="" style="shape=waypoint;sketch=0;fillStyle=solid;size=6;pointerEvents=1;points=[];fillColor=none;resizable=0;rotatable=0;perimeter=centerPerimeter;snapToPoint=1;" vertex="1" parent="1">
          <mxGeometry x="-250" y="2840" width="20" height="20" as="geometry" />
        </mxCell>
        <mxCell id="mOFQqMSQU7gzzSFIz9HI-95" value="" style="shape=waypoint;sketch=0;fillStyle=solid;size=6;pointerEvents=1;points=[];fillColor=none;resizable=0;rotatable=0;perimeter=centerPerimeter;snapToPoint=1;" vertex="1" parent="1">
          <mxGeometry x="-250" y="3270" width="20" height="20" as="geometry" />
        </mxCell>
        <mxCell id="mOFQqMSQU7gzzSFIz9HI-96" value="F" style="text;html=1;align=center;verticalAlign=middle;resizable=0;points=[];autosize=1;strokeColor=none;fillColor=none;" vertex="1" parent="1">
          <mxGeometry x="-445" y="2718" width="30" height="30" as="geometry" />
        </mxCell>
        <mxCell id="mOFQqMSQU7gzzSFIz9HI-100" value="" style="edgeStyle=orthogonalEdgeStyle;rounded=0;orthogonalLoop=1;jettySize=auto;html=1;" edge="1" parent="1" source="mOFQqMSQU7gzzSFIz9HI-97" target="mOFQqMSQU7gzzSFIz9HI-99">
          <mxGeometry relative="1" as="geometry" />
        </mxCell>
        <mxCell id="mOFQqMSQU7gzzSFIz9HI-97" value="แสดงข้อความ NewArray" style="shape=parallelogram;perimeter=parallelogramPerimeter;whiteSpace=wrap;html=1;fixedSize=1;" vertex="1" parent="1">
          <mxGeometry x="-940" y="2310" width="120" height="60" as="geometry" />
        </mxCell>
        <mxCell id="mOFQqMSQU7gzzSFIz9HI-104" value="" style="edgeStyle=orthogonalEdgeStyle;rounded=0;orthogonalLoop=1;jettySize=auto;html=1;" edge="1" parent="1" source="mOFQqMSQU7gzzSFIz9HI-99" target="mOFQqMSQU7gzzSFIz9HI-103">
          <mxGeometry relative="1" as="geometry" />
        </mxCell>
        <mxCell id="mOFQqMSQU7gzzSFIz9HI-99" value="int i = 0" style="whiteSpace=wrap;html=1;" vertex="1" parent="1">
          <mxGeometry x="-940" y="2450" width="120" height="60" as="geometry" />
        </mxCell>
        <mxCell id="mOFQqMSQU7gzzSFIz9HI-106" value="" style="edgeStyle=orthogonalEdgeStyle;rounded=0;orthogonalLoop=1;jettySize=auto;html=1;" edge="1" parent="1" source="mOFQqMSQU7gzzSFIz9HI-103" target="mOFQqMSQU7gzzSFIz9HI-105">
          <mxGeometry relative="1" as="geometry" />
        </mxCell>
        <mxCell id="mOFQqMSQU7gzzSFIz9HI-111" style="edgeStyle=orthogonalEdgeStyle;rounded=0;orthogonalLoop=1;jettySize=auto;html=1;exitX=0;exitY=0.5;exitDx=0;exitDy=0;entryX=0.5;entryY=0;entryDx=0;entryDy=0;" edge="1" parent="1" source="mOFQqMSQU7gzzSFIz9HI-103" target="mOFQqMSQU7gzzSFIz9HI-110">
          <mxGeometry relative="1" as="geometry">
            <Array as="points">
              <mxPoint x="-1060" y="2653" />
              <mxPoint x="-1060" y="3450" />
              <mxPoint x="415" y="3450" />
            </Array>
          </mxGeometry>
        </mxCell>
        <mxCell id="mOFQqMSQU7gzzSFIz9HI-103" value="แสดงผลลัพธ์การผสานอาเรย์" style="rhombus;whiteSpace=wrap;html=1;" vertex="1" parent="1">
          <mxGeometry x="-960" y="2588" width="160" height="130" as="geometry" />
        </mxCell>
        <mxCell id="mOFQqMSQU7gzzSFIz9HI-105" value="i++" style="whiteSpace=wrap;html=1;" vertex="1" parent="1">
          <mxGeometry x="-940" y="2833" width="120" height="60" as="geometry" />
        </mxCell>
        <mxCell id="mOFQqMSQU7gzzSFIz9HI-107" value="" style="shape=waypoint;sketch=0;fillStyle=solid;size=6;pointerEvents=1;points=[];fillColor=none;resizable=0;rotatable=0;perimeter=centerPerimeter;snapToPoint=1;" vertex="1" parent="1">
          <mxGeometry x="-890" y="2520" width="20" height="20" as="geometry" />
        </mxCell>
        <mxCell id="mOFQqMSQU7gzzSFIz9HI-108" style="edgeStyle=orthogonalEdgeStyle;rounded=0;orthogonalLoop=1;jettySize=auto;html=1;exitX=0.5;exitY=1;exitDx=0;exitDy=0;entryX=0.7;entryY=1.05;entryDx=0;entryDy=0;entryPerimeter=0;" edge="1" parent="1" source="mOFQqMSQU7gzzSFIz9HI-105" target="mOFQqMSQU7gzzSFIz9HI-107">
          <mxGeometry relative="1" as="geometry">
            <Array as="points">
              <mxPoint x="-880" y="2913" />
              <mxPoint x="-700" y="2913" />
              <mxPoint x="-700" y="2530" />
            </Array>
          </mxGeometry>
        </mxCell>
        <mxCell id="mOFQqMSQU7gzzSFIz9HI-109" value="T" style="text;html=1;align=center;verticalAlign=middle;resizable=0;points=[];autosize=1;strokeColor=none;fillColor=none;" vertex="1" parent="1">
          <mxGeometry x="-865" y="2718" width="30" height="30" as="geometry" />
        </mxCell>
        <mxCell id="mOFQqMSQU7gzzSFIz9HI-110" value="end" style="ellipse;whiteSpace=wrap;html=1;" vertex="1" parent="1">
          <mxGeometry x="355" y="3540" width="120" height="80" as="geometry" />
        </mxCell>
        <mxCell id="mOFQqMSQU7gzzSFIz9HI-112" value="F" style="text;html=1;align=center;verticalAlign=middle;resizable=0;points=[];autosize=1;strokeColor=none;fillColor=none;" vertex="1" parent="1">
          <mxGeometry x="-995" y="2608" width="30" height="30" as="geometry" />
        </mxCell>
      </root>
    </mxGraphModel>
  </diagram>
</mxfile>
